<svg xmlns="http://www.w3.org/2000/svg" xmlns:xlink="http://www.w3.org/1999/xlink" viewBox="0 0 898.95 1581.33">
  <defs>
    <style>
      .cls-1 {
        fill: #008f95;
      }

      .cls-2 {
        clip-path: url(#clip-path);
      }

      .cls-3 {
        fill: #14281d;
      }

      .cls-4 {
        fill: #1db954;
      }
    </style>
    <clipPath id="clip-path" transform="translate(140.58 73.8)">
      <rect class="cls-1" width="701.08" height="1442.32"/>
    </clipPath>
  </defs>
  <title>Asset 1</title>
  <g id="Layer_2" data-name="Layer 2">
    <g id="Layer_1-2" data-name="Layer 1">
      <g>
        <rect class="cls-1" x="140.58" y="73.8" width="701.08" height="1442.32"/>
        <g class="cls-2">
          <rect class="cls-3" x="111.43" y="52.93" width="740.35" height="1497.53"/>
          <g>
            <path class="cls-4" d="M758.37,1381.47c-26.46,29.77-36.57,64.26-45.55,94.93l-1.26,4.29,46.81,13.76Z" transform="translate(140.58 73.8)"/>
            <path class="cls-4" d="M758.37,1245.09c-26.66,8.68-54.53,20.69-78.68,44.84-31.18,31.18-42.13,68.56-51.79,101.54-8.56,29.23-16.64,56.85-37.72,78.54l36.93,35.88c30-30.84,40.73-67.55,50.21-100,9.07-31,16.91-57.72,38.79-79.6,12.52-12.53,26.66-20.45,42.26-26.64Z" transform="translate(140.58 73.8)"/>
            <path class="cls-4" d="M758.37,1128.61c-18.15,11.75-38.92,17.84-62,24.61-33,9.66-70.36,20.61-101.54,51.79s-42.13,68.57-51.79,101.55c-9.08,31-16.91,57.73-38.78,79.6s-48.64,29.72-79.61,38.79c-31.15,9.13-63.36,18.56-92.48,43.42l33.42,39.16c20.75-17.71,46.39-25.22,73.53-33.17,33-9.65,70.36-20.6,101.54-51.79S582.74,1354,592.4,1321c9.08-31,16.91-57.73,38.79-79.61s48.63-29.71,79.6-38.78c15.27-4.47,31.48-9.23,47.58-16.13Z" transform="translate(140.58 73.8)"/>
            <path class="cls-4" d="M758.37,878c-14.44,23.71-21.82,48.88-28.57,71.91-9.06,31-16.91,57.72-38.78,79.6s-48.63,29.71-79.61,38.78c-33,9.67-70.36,20.61-101.54,51.79s-42.14,68.57-51.8,101.55c-9.07,31-16.91,57.73-38.79,79.61S370.66,1331,339.68,1340c-33,9.65-70.37,20.61-101.54,51.78-27.94,27.94-39.41,60.41-48,88.66l49.28,14.94c7.06-23.29,15.59-47.66,35.11-67.19,21.87-21.87,48.62-29.71,79.61-38.78,33-9.66,70.36-20.61,101.54-51.79s42.13-68.57,51.79-101.55c9.07-31,16.91-57.73,38.79-79.6s48.63-29.72,79.6-38.79c33-9.66,70.37-20.61,101.55-51.8a162.74,162.74,0,0,0,30.94-43.69Z" transform="translate(140.58 73.8)"/>
            <path class="cls-4" d="M758.37,724.64c-21.26,8.26-42.63,19.75-61.69,38.81C665.5,794.63,654.55,832,644.89,865c-9.07,31-16.91,57.73-38.79,79.6s-48.62,29.72-79.61,38.79c-33,9.66-70.36,20.61-101.54,51.79s-42.13,68.56-51.79,101.54c-9.07,31-16.91,57.74-38.79,79.61s-48.63,29.72-79.61,38.79c-33,9.66-70.36,20.61-101.54,51.79s-42.13,68.57-51.79,101.54c-6.91,23.62-13.45,45.93-26.52,64.88l42.38,29.24c17.78-25.76,25.8-53.16,33.55-79.64,9.08-31,16.91-57.74,38.79-79.61s48.62-29.72,79.61-38.78c33-9.67,70.36-20.62,101.54-51.8s42.13-68.57,51.79-101.54c9.07-31,16.91-57.73,38.79-79.61S510,1041.88,541,1032.8c33-9.66,70.37-20.61,101.54-51.79s42.13-68.55,51.79-101.54c9.07-31,16.91-57.73,38.79-79.61a109.21,109.21,0,0,1,25.28-18.76Z" transform="translate(140.58 73.8)"/>
            <path class="cls-4" d="M758.37,611.32c-13.8,6.26-28.85,10.67-45.06,15.42-33,9.67-70.37,20.62-101.55,51.8S569.64,747.1,560,780.08c-9.06,31-16.91,57.73-38.79,79.61s-48.63,29.71-79.61,38.79c-33,9.66-70.36,20.6-101.53,51.79s-42.14,68.56-51.8,101.54c-9.07,31-16.91,57.74-38.78,79.61s-48.64,29.72-79.61,38.78c-33,9.66-70.36,20.61-101.55,51.79s-42.13,68.57-51.78,101.55c-9.08,31-16.92,57.73-38.79,79.61s-48.63,29.71-79.61,38.78c-7.35,2.15-14.69,4.31-22,6.65l15.78,49c6.85-2.21,13.76-4.22,20.66-6.24,33-9.67,70.36-20.61,101.54-51.79S56.26,1371,65.93,1338c9.07-31,16.91-57.73,38.78-79.61s48.63-29.71,79.61-38.78c33-9.67,70.36-20.61,101.55-51.79s42.12-68.56,51.79-101.54c9.07-31,16.9-57.74,38.79-79.61s48.62-29.71,79.6-38.79c33-9.66,70.36-20.61,101.54-51.79s42.13-68.57,51.8-101.55c9.07-31,16.91-57.73,38.78-79.61s48.63-29.71,79.62-38.78c9.89-2.9,20.18-5.92,30.58-9.56Z" transform="translate(140.58 73.8)"/>
            <path class="cls-4" d="M758.37,387.23c-4.58,12.31-8.16,24.53-11.58,36.2-9.08,31-16.91,57.74-38.79,79.62s-48.63,29.71-79.61,38.78c-33,9.66-70.36,20.61-101.55,51.79s-42.12,68.57-51.78,101.55c-9.08,31-16.91,57.73-38.78,79.6s-48.64,29.71-79.62,38.79c-33,9.66-70.36,20.6-101.54,51.79S213,933.91,203.33,966.89c-9.08,31-16.91,57.74-38.79,79.61s-48.63,29.72-79.61,38.79c-33,9.66-70.36,20.61-101.54,51.79s-42.13,68.56-51.79,101.54c-9.08,31-16.92,57.73-38.8,79.61A106.87,106.87,0,0,1-129,1335l26.07,44.39a157.57,157.57,0,0,0,32.13-24.75c31.19-31.18,42.14-68.56,51.8-101.54,9.07-31,16.91-57.73,38.78-79.61s48.63-29.72,79.61-38.79c33-9.66,70.37-20.61,101.55-51.79s42.13-68.57,51.79-101.54c9.08-31,16.91-57.73,38.79-79.61S340.16,872,371.13,863c33-9.66,70.37-20.61,101.56-51.79s42.12-68.56,51.78-101.54c9.07-31,16.91-57.74,38.79-79.61s48.63-29.71,79.6-38.79c33-9.66,70.36-20.61,101.55-51.79a154.66,154.66,0,0,0,14-16Z" transform="translate(140.58 73.8)"/>
            <path class="cls-4" d="M758.37,205.54A163.16,163.16,0,0,0,713.66,237c-31.18,31.17-42.13,68.55-51.79,101.53-9.07,31-16.91,57.74-38.79,79.62s-48.62,29.71-79.6,38.78c-33,9.66-70.37,20.61-101.55,51.79s-42.13,68.57-51.79,101.55c-9.07,31-16.91,57.73-38.78,79.61s-48.63,29.71-79.61,38.78c-33,9.66-70.36,20.62-101.54,51.8S128.07,849,118.41,882c-9.07,31-16.91,57.74-38.78,79.61S31,991.31,0,1000.37c-33,9.67-70.37,20.61-101.55,51.79-16.41,16.41-28.61,35.64-38.39,60.52L-92,1131.52c7.2-18.32,15.49-31.56,26.88-43,21.87-21.87,48.63-29.71,79.61-38.78,33-9.66,70.36-20.61,101.55-51.79s42.12-68.57,51.78-101.55c9.08-31,16.91-57.73,38.79-79.6s48.63-29.72,79.61-38.79c33-9.67,70.36-20.61,101.55-51.8s42.12-68.56,51.79-101.53c9.07-31,16.9-57.74,38.79-79.62S527,515.4,558,506.33c33-9.67,70.36-20.61,101.54-51.79S701.63,386,711.29,353c9.07-31,16.91-57.73,38.78-79.61a108.43,108.43,0,0,1,8.3-7.47Z" transform="translate(140.58 73.8)"/>
            <path class="cls-4" d="M758.37,91.55c-8.92,3.1-18.29,5.85-28.08,8.71-33,9.67-70.36,20.62-101.53,51.8S586.62,220.62,577,253.6c-9.07,31-16.9,57.74-38.78,79.61S489.54,362.92,458.56,372c-33,9.66-70.36,20.6-101.55,51.78s-42.12,68.57-51.78,101.55c-9.08,31-16.91,57.73-38.79,79.61s-48.63,29.71-79.61,38.79c-33,9.66-70.36,20.61-101.55,51.79S43.16,764.08,33.49,797.06c-9.07,31-16.9,57.74-38.79,79.61s-48.62,29.71-79.6,38.79c-13.19,3.86-26.85,7.86-40.43,13.16l18.74,48c11.47-4.48,23.47-8,36.17-11.71,33-9.66,70.36-20.61,101.54-51.78s42.13-68.57,51.79-101.56c9.08-31,16.91-57.72,38.78-79.6s48.63-29.71,79.61-38.79c33-9.66,70.37-20.61,101.55-51.79S345,572.79,354.64,539.8c9.07-31,16.91-57.73,38.78-79.61s48.63-29.7,79.62-38.77c33-9.67,70.36-20.62,101.54-51.8s42.13-68.56,51.79-101.54c9.08-31,16.91-57.73,38.79-79.62s48.63-29.7,79.61-38.78c4.46-1.31,9-2.64,13.6-4Z" transform="translate(140.58 73.8)"/>
            <path class="cls-4" d="M758.37-55.45,749-59.57c-6.51,14.76-14.14,26.24-24,36.13C703.11-1.56,676.36,6.28,645.37,15.35,612.4,25,575,36,543.84,67.14S501.7,135.71,492,168.69c-9.08,31-16.91,57.73-38.78,79.61S404.62,278,373.65,287.08c-33,9.66-70.37,20.61-101.55,51.79S230,407.43,220.31,440.42c-9.07,31-16.91,57.73-38.79,79.61s-48.63,29.71-79.61,38.78c-33,9.66-70.36,20.61-101.54,51.8s-42.13,68.56-51.79,101.53c-9.08,31-16.91,57.74-38.79,79.62-9.9,9.9-21.38,17.54-36.13,24l20.76,47.11c20.48-9,37.42-20.39,51.78-34.74C-22.62,797-11.67,759.6-2,726.62c9.08-31,16.91-57.73,38.79-79.61s48.63-29.71,79.61-38.79c33-9.66,70.36-20.6,101.54-51.78s42.13-68.57,51.79-101.55c9.08-31,16.91-57.74,38.79-79.61s48.63-29.71,79.61-38.78c33-9.66,70.36-20.61,101.55-51.8s42.12-68.56,51.78-101.54c9.07-31,16.91-57.73,38.79-79.61s48.63-29.71,79.61-38.79c31.92-9.34,68-19.9,98.52-48.84Z" transform="translate(140.58 73.8)"/>
            <path class="cls-4" d="M-91.34,656.57l-49.24-15.09c1.46-4.73,2.85-9.49,4.24-14.24,9.66-33,20.62-70.37,51.79-101.56S-16,483.56,17,473.89c31-9.07,57.74-16.9,79.62-38.78s29.71-48.64,38.79-79.62c9.66-33,20.6-70.36,51.78-101.54s68.57-42.12,101.55-51.78c31-9.08,57.73-16.91,79.61-38.79s29.71-48.63,38.78-79.61c9.66-33,20.62-70.36,51.8-101.55S527.48-59.9,560.46-69.57q7.14-2.07,14.25-4.23L589.8-24.57c-4.94,1.51-9.9,3-14.87,4.42-31,9.08-57.73,16.91-79.61,38.79s-29.71,48.63-38.78,79.6c-9.66,33-20.61,70.37-51.79,101.55s-68.57,42.13-101.54,51.79c-31,9.07-57.74,16.91-79.62,38.79S193.89,339,184.81,370c-9.66,33-20.62,70.36-51.8,101.55S64.45,513.65,31.47,523.31c-31,9.08-57.73,16.91-79.61,38.78s-29.71,48.64-38.79,79.62C-88.38,646.67-89.83,651.63-91.34,656.57Z" transform="translate(140.58 73.8)"/>
            <path class="cls-4" d="M-104.31,456.63l-23.3-45.92c19.81-10,40.09-16,59.69-21.73,31-9.07,57.74-16.91,79.61-38.79s29.71-48.63,38.79-79.6c9.66-33,20.6-70.37,51.78-101.55s68.57-42.13,101.55-51.79c31-9.07,57.74-16.91,79.61-38.78s29.72-48.64,38.79-79.62C328-20.75,333.89-41,343.94-60.83l45.92,23.29C382-22,376.94-4.84,371.62,13.32c-9.65,33-20.6,70.37-51.79,101.55S251.27,157,218.28,166.67c-31,9.07-57.73,16.91-79.61,38.78S109,254.08,99.89,285.06C90.23,318,79.28,355.42,48.1,386.6s-68.56,42.14-101.55,51.79C-71.6,443.71-88.75,448.73-104.31,456.63Z" transform="translate(140.58 73.8)"/>
            <path class="cls-4" d="M-107.45,343.83l-17-48.6c23-8,38.29-17,51.25-30,21.87-21.88,29.71-48.63,38.79-79.61,9.65-33,20.6-70.36,51.78-101.55S85.92,42,118.9,32.33c31-9.07,57.73-16.9,79.6-38.78,13-12.95,21.91-28.28,30-51.25l48.59,17C269.9-20.26,258.64,6.23,234.92,30c-31.18,31.18-68.57,42.13-101.54,51.79-31,9.08-57.74,16.91-79.61,38.79S24.05,169.17,15,200.15c-9.66,33-20.61,70.35-51.79,101.54C-60.56,325.44-87,336.69-107.45,343.83Z" transform="translate(140.58 73.8)"/>
            <path class="cls-4" d="M-93.21,177.89l-45.49-24.12c8.54-16.12,13.79-34,19.35-53,9.66-33,20.61-70.36,51.79-101.54S1-42.92,34-52.58c19-5.56,36.9-10.81,53-19.35l24.12,45.49C90.38-15.44,69.07-9.21,48.46-3.17,17.48,5.9-9.28,13.74-31.15,35.62s-29.71,48.63-38.79,79.61C-76,135.83-82.22,157.16-93.21,177.89Z" transform="translate(140.58 73.8)"/>
          </g>
        </g>
      </g>
    </g>
  </g>
</svg>
